<svg width="111" height="99" viewBox="0 0 111 99" fill="none" xmlns="http://www.w3.org/2000/svg">
<path fill-rule="evenodd" clip-rule="evenodd" d="M36.4352 55.7143L25.4352 49.3635L36.4352 43.0126L99.9352 6.35088L110.935 2.67803e-05L110.935 10.895L55.9352 42.6492L44.9352 49.0001L55.9352 55.3509L110.935 87.1052L110.935 98.7269L99.9352 92.3761L36.4352 55.7143ZM110.935 23.5967L110.935 74.4035L99.9352 68.0526L99.9352 29.9475L110.935 23.5967Z" fill="white"/>
<path fill-rule="evenodd" clip-rule="evenodd" d="M10.9999 55.2144L-5.38748e-05 48.8635L10.9999 42.5127L31.4352 30.7144L42.4352 24.3635L42.4352 29.7709L41.1134 30.534L20.6782 42.3323L9.67816 48.6832L20.6782 55.034L41.1134 66.8323L42.4352 67.5954L42.4352 73.3635L31.4352 67.0127L10.9999 55.2144ZM41.1134 54.1306L31.6782 48.6832L41.1134 43.2357L41.1134 54.1306Z" fill="white"/>
</svg>
