<svg width="213" height="253" viewBox="0 0 213 253" fill="none" xmlns="http://www.w3.org/2000/svg">
<g filter="url(#filter0_d)">
<rect x="9" y="5" width="194.757" height="194.757" rx="30" fill="url(#paint0_linear)"/>
</g>
<path fill-rule="evenodd" clip-rule="evenodd" d="M174.061 70.5293L147.62 44.0883L64.992 126.717L64.855 126.58L55.0766 163.073L91.57 153.295L91.433 153.158L174.061 70.5293ZM60.5851 157.564L65.4743 139.318L78.8318 152.675L60.5851 157.564Z" fill="white"/>
<path d="M70.16 247H73.256V237.184C73.256 236.176 73.088 234.544 73.088 234.544H73.136C73.136 234.544 73.904 236.2 74.552 237.184L81.008 247H84.08V229.96H81.008V239.8C81.008 240.808 81.176 242.44 81.176 242.44H81.128C81.128 242.44 80.36 240.784 79.712 239.8L73.256 229.96H70.16V247ZM89.6184 238.36C89.6184 243.376 93.4104 247.288 98.4264 247.288C103.442 247.288 107.234 243.376 107.234 238.36C107.234 233.488 103.442 229.672 98.4264 229.672C93.4104 229.672 89.6184 233.488 89.6184 238.36ZM92.8104 238.36C92.8104 235 95.3064 232.504 98.4264 232.504C101.546 232.504 104.042 235 104.042 238.36C104.042 241.864 101.546 244.456 98.4264 244.456C95.3064 244.456 92.8104 241.864 92.8104 238.36ZM116.175 247H119.271V232.624H124.864V229.96H110.583V232.624H116.175V247ZM129.508 247H140.092V244.336H132.604V239.752H138.34V237.088H132.604V232.624H139.708V229.96H129.508V247ZM144.417 244.96C144.417 244.96 146.505 247.288 150.297 247.288C153.849 247.288 155.913 245.008 155.913 242.296C155.913 236.848 147.897 237.592 147.897 234.568C147.897 233.368 149.025 232.528 150.465 232.528C152.601 232.528 154.233 234.016 154.233 234.016L155.577 231.496C155.577 231.496 153.849 229.672 150.489 229.672C147.225 229.672 144.777 231.784 144.777 234.616C144.777 239.848 152.817 239.32 152.817 242.368C152.817 243.76 151.641 244.432 150.345 244.432C147.945 244.432 146.097 242.632 146.097 242.632L144.417 244.96Z" fill="#392929"/>
<circle cx="51.0674" cy="104.715" r="9.34832" fill="white"/>
<circle cx="60.4157" cy="82.9026" r="4.67416" fill="white"/>
<circle cx="44.0562" cy="68.1011" r="2.33708" fill="white"/>
<defs>
<filter id="filter0_d" x="0" y="0" width="212.757" height="212.757" filterUnits="userSpaceOnUse" color-interpolation-filters="sRGB">
<feFlood flood-opacity="0" result="BackgroundImageFix"/>
<feColorMatrix in="SourceAlpha" type="matrix" values="0 0 0 0 0 0 0 0 0 0 0 0 0 0 0 0 0 0 127 0"/>
<feOffset dy="4"/>
<feGaussianBlur stdDeviation="4.5"/>
<feColorMatrix type="matrix" values="0 0 0 0 0 0 0 0 0 0 0 0 0 0 0 0 0 0 0.13 0"/>
<feBlend mode="normal" in2="BackgroundImageFix" result="effect1_dropShadow"/>
<feBlend mode="normal" in="SourceGraphic" in2="effect1_dropShadow" result="shape"/>
</filter>
<linearGradient id="paint0_linear" x1="9" y1="5" x2="203.757" y2="199.757" gradientUnits="userSpaceOnUse">
<stop stop-color="#FFD231"/>
<stop offset="1" stop-color="#FFFBD6"/>
</linearGradient>
</defs>
</svg>
