<svg width="1276" height="2236" viewBox="0 0 1276 2236" fill="none" xmlns="http://www.w3.org/2000/svg">
<rect width="1276" height="2236" fill="url(#paint0_linear)"/>
<circle cx="282" cy="1884" r="148" fill="url(#paint1_linear)" fill-opacity="0.48"/>
<circle cx="835.935" cy="1592.76" r="78.795" transform="rotate(-75 835.935 1592.76)" fill="url(#paint2_linear)" fill-opacity="0.48"/>
<circle cx="459.389" cy="1240.2" r="97.606" transform="rotate(30 459.389 1240.2)" fill="url(#paint3_linear)" fill-opacity="0.48"/>
<circle cx="957.439" cy="311" r="148" transform="rotate(180 957.439 311)" fill="url(#paint4_linear)" fill-opacity="0.48"/>
<circle cx="403.504" cy="602.242" r="78.795" transform="rotate(105 403.504 602.242)" fill="url(#paint5_linear)" fill-opacity="0.48"/>
<circle cx="780.05" cy="954.8" r="97.606" transform="rotate(-150 780.05 954.8)" fill="url(#paint6_linear)" fill-opacity="0.48"/>
<defs>
<linearGradient id="paint0_linear" x1="638" y1="0" x2="638" y2="2236" gradientUnits="userSpaceOnUse">
<stop stop-color="white"/>
<stop offset="1" stop-color="#FFFEF2"/>
</linearGradient>
<linearGradient id="paint1_linear" x1="430" y1="1984" x2="193" y2="1776" gradientUnits="userSpaceOnUse">
<stop stop-color="white"/>
<stop offset="1" stop-color="#FFF0CA"/>
</linearGradient>
<linearGradient id="paint2_linear" x1="914.73" y1="1646" x2="788.552" y2="1535.26" gradientUnits="userSpaceOnUse">
<stop stop-color="white"/>
<stop offset="1" stop-color="#FFF0CA"/>
</linearGradient>
<linearGradient id="paint3_linear" x1="556.995" y1="1306.15" x2="400.694" y2="1168.97" gradientUnits="userSpaceOnUse">
<stop stop-color="white"/>
<stop offset="1" stop-color="#FFF0CA"/>
</linearGradient>
<linearGradient id="paint4_linear" x1="1105.44" y1="411" x2="868.439" y2="203" gradientUnits="userSpaceOnUse">
<stop stop-color="white"/>
<stop offset="1" stop-color="#FFF0CA"/>
</linearGradient>
<linearGradient id="paint5_linear" x1="482.299" y1="655.481" x2="356.12" y2="544.743" gradientUnits="userSpaceOnUse">
<stop stop-color="white"/>
<stop offset="1" stop-color="#FFF0CA"/>
</linearGradient>
<linearGradient id="paint6_linear" x1="877.656" y1="1020.75" x2="721.355" y2="883.574" gradientUnits="userSpaceOnUse">
<stop stop-color="white"/>
<stop offset="1" stop-color="#FFF0CA"/>
</linearGradient>
</defs>
</svg>
