<svg width="213" height="253" viewBox="0 0 213 253" fill="none" xmlns="http://www.w3.org/2000/svg">
<g filter="url(#filter0_d)">
<rect x="9" y="5" width="194.757" height="194.757" rx="30" fill="url(#paint0_linear)"/>
</g>
<path d="M84.139 143.372C86.354 150.945 80.7994 159.541 71.2476 162.335C61.6959 165.129 52.3843 160.882 50.1692 153.309C47.9542 145.737 53.5088 137.141 63.0606 134.347C72.6124 131.553 81.924 135.8 84.139 143.372Z" stroke="white" stroke-width="2"/>
<path d="M154.758 127.74C156.973 135.313 151.418 143.909 141.866 146.703C132.314 149.497 123.003 145.249 120.788 137.677C118.573 130.105 124.127 121.509 133.679 118.715C143.231 115.92 152.543 120.168 154.758 127.74Z" stroke="white" stroke-width="2"/>
<line x1="84.8508" y1="148.341" x2="84.8508" y2="50.1835" stroke="white" stroke-width="2"/>
<line x1="82.5307" y1="50.7626" x2="157.317" y2="35.1821" stroke="white" stroke-width="2"/>
<line x1="84.0888" y1="75.6914" x2="158.875" y2="60.1109" stroke="white" stroke-width="2"/>
<line x1="154.963" y1="132.76" x2="154.963" y2="34.603" stroke="white" stroke-width="2"/>
<line x1="179.169" y1="33.4101" x2="34.2704" y2="168.961" stroke="#E7FEFF"/>
<line x1="168.275" y1="66.1176" x2="51.421" y2="182.972" stroke="#E7FEFF"/>
<line x1="158.927" y1="22.4921" x2="42.0727" y2="139.346" stroke="#E7FEFF"/>
<path d="M64.632 247H67.728L68.448 237.472C68.52 236.344 68.472 234.808 68.472 234.808H68.52C68.52 234.808 69.048 236.488 69.456 237.472L72.192 244.072H74.904L77.664 237.472C78.072 236.488 78.576 234.832 78.576 234.832H78.624C78.624 234.832 78.576 236.344 78.648 237.472L79.368 247H82.44L81.072 229.96H77.76L74.424 238.384C74.04 239.392 73.584 240.88 73.584 240.88H73.536C73.536 240.88 73.056 239.392 72.672 238.384L69.336 229.96H66.024L64.632 247ZM88.3903 240.88C88.3903 244.696 91.1503 247.288 95.2783 247.288C99.3823 247.288 102.142 244.696 102.142 240.88V229.96H99.0463V240.856C99.0463 243.16 97.5343 244.456 95.2543 244.456C92.9743 244.456 91.4863 243.16 91.4863 240.88V229.96H88.3903V240.88ZM107.336 244.96C107.336 244.96 109.424 247.288 113.216 247.288C116.768 247.288 118.832 245.008 118.832 242.296C118.832 236.848 110.816 237.592 110.816 234.568C110.816 233.368 111.944 232.528 113.384 232.528C115.52 232.528 117.152 234.016 117.152 234.016L118.496 231.496C118.496 231.496 116.768 229.672 113.408 229.672C110.144 229.672 107.696 231.784 107.696 234.616C107.696 239.848 115.736 239.32 115.736 242.368C115.736 243.76 114.56 244.432 113.264 244.432C110.864 244.432 109.016 242.632 109.016 242.632L107.336 244.96ZM124.321 247H127.417V229.96H124.321V247ZM132.951 238.408C132.951 243.424 136.551 247.288 141.759 247.288C146.103 247.288 148.455 244.528 148.455 244.528L146.823 242.296C146.823 242.296 144.831 244.456 141.879 244.456C138.327 244.456 136.143 241.6 136.143 238.36C136.143 235.192 138.255 232.504 141.855 232.504C144.567 232.504 146.511 234.304 146.511 234.304L147.999 232C147.999 232 145.863 229.672 141.711 229.672C136.695 229.672 132.951 233.464 132.951 238.408Z" fill="#392929"/>
<defs>
<filter id="filter0_d" x="0" y="0" width="212.757" height="212.757" filterUnits="userSpaceOnUse" color-interpolation-filters="sRGB">
<feFlood flood-opacity="0" result="BackgroundImageFix"/>
<feColorMatrix in="SourceAlpha" type="matrix" values="0 0 0 0 0 0 0 0 0 0 0 0 0 0 0 0 0 0 127 0"/>
<feOffset dy="4"/>
<feGaussianBlur stdDeviation="4.5"/>
<feColorMatrix type="matrix" values="0 0 0 0 0 0 0 0 0 0 0 0 0 0 0 0 0 0 0.13 0"/>
<feBlend mode="normal" in2="BackgroundImageFix" result="effect1_dropShadow"/>
<feBlend mode="normal" in="SourceGraphic" in2="effect1_dropShadow" result="shape"/>
</filter>
<linearGradient id="paint0_linear" x1="9" y1="5" x2="203.757" y2="199.757" gradientUnits="userSpaceOnUse">
<stop stop-color="#80F7FF"/>
<stop offset="1" stop-color="#D6FDFF"/>
</linearGradient>
</defs>
</svg>
