<svg width="112" height="100" viewBox="0 0 112 100" fill="none" xmlns="http://www.w3.org/2000/svg">
<path fill-rule="evenodd" clip-rule="evenodd" d="M75 43.6493L86 50.0002L75 56.351L11.5 93.0128L0.5 99.3636L0.5 88.4687L55.5 56.7144L66.5 50.3636L55.5 44.0127L0.500004 12.2585V0.636719L11.5 6.98757L75 43.6493ZM0.500001 75.767L0.500004 24.9602L11.5 31.311L11.5 69.4161L0.500001 75.767Z" fill="white"/>
<path fill-rule="evenodd" clip-rule="evenodd" d="M100.435 44.1493L111.435 50.5001L100.435 56.851L80 68.6493L69 75.0001L69 69.5928L70.3218 68.8296L90.757 57.0313L101.757 50.6805L90.757 44.3296L70.3218 32.5313L69 31.7682V26.0001L80 32.351L100.435 44.1493ZM70.3218 45.233L79.757 50.6805L70.3218 56.1279L70.3218 45.233Z" fill="white"/>
</svg>
