<svg width="24" height="18" viewBox="0 0 24 18" fill="none" xmlns="http://www.w3.org/2000/svg">
<path d="M8.213 13.984C9.183 12.956 10.521 12.32 12 12.32C13.479 12.32 14.817 12.956 15.787 13.984L12 18L8.213 13.984V13.984ZM6.466 12.13C7.883 10.628 9.839 9.699 12 9.699C14.161 9.699 16.118 10.628 17.534 12.13L19.864 9.658C17.852 7.524 15.071 6.204 12 6.204C8.929 6.204 6.148 7.524 4.136 9.659L6.466 12.13V12.13ZM2.388 7.805C4.848 5.196 8.247 3.583 12 3.583C15.753 3.583 19.152 5.196 21.612 7.805L24 5.272C20.929 2.015 16.687 0 12 0C7.313 0 3.071 2.015 0 5.272L2.388 7.805V7.805Z" fill="white"/>
</svg>
